HIERARCHY
ROOT mixamorig:Hips
{
	OFFSET 0.000000 201.639420 0.000000
	CHANNELS 6 Xposition Yposition Zposition Xrotation Yrotation Zrotation
	JOINT mixamorig:Spine
	{
		OFFSET 0.006200 19.524994 -2.481800
		CHANNELS 3 Xrotation Yrotation Zrotation
		JOINT mixamorig:Spine1
		{
			OFFSET -0.000900 22.835007 -2.825400
			CHANNELS 3 Xrotation Yrotation Zrotation
			JOINT mixamorig:Spine2
			{
				OFFSET -0.020600 26.552490 -3.193300
				CHANNELS 3 Xrotation Yrotation Zrotation
				JOINT mixamorig:Neck
				{
					OFFSET -0.060000 30.701813 1.352200
					CHANNELS 3 Xrotation Yrotation Zrotation
					JOINT mixamorig:Head
					{
						OFFSET -0.087200 22.547607 3.670900
						CHANNELS 3 Xrotation Yrotation Zrotation
						JOINT mixamorig:HeadTop_End
						{
							OFFSET -0.830600 40.355194 7.893500
							CHANNELS 3 Xrotation Yrotation Zrotation
							End Site
							{
								OFFSET 0.000000 30.592346 0.000000
							}
						}
						JOINT mixamorig:RightEye
						{
							OFFSET -6.302100 18.118591 16.197100
							CHANNELS 3 Xrotation Yrotation Zrotation
							End Site
							{
								OFFSET 0.000000 30.592346 0.000000
							}
						}
						JOINT mixamorig:LeftEye
						{
							OFFSET 6.741500 18.382690 16.401899
							CHANNELS 3 Xrotation Yrotation Zrotation
							End Site
							{
								OFFSET 0.000000 30.592346 0.000000
							}
						}
					}
				}
				JOINT mixamorig:LeftShoulder
				{
					OFFSET 11.924900 18.230499 1.425400
					CHANNELS 3 Xrotation Yrotation Zrotation
					JOINT mixamorig:LeftArm
					{
						OFFSET 25.435989 -0.697632 -5.229300
						CHANNELS 3 Xrotation Yrotation Zrotation
						JOINT mixamorig:LeftForeArm
						{
							OFFSET 54.684776 0.000000 0.000000
							CHANNELS 3 Xrotation Yrotation Zrotation
							JOINT mixamorig:LeftHand
							{
								OFFSET 55.098175 0.000000 0.000000
								CHANNELS 3 Xrotation Yrotation Zrotation
								JOINT mixamorig:LeftHandMiddle1
								{
									OFFSET 23.369751 0.000000 0.000000
									CHANNELS 3 Xrotation Yrotation Zrotation
									JOINT mixamorig:LeftHandMiddle2
									{
										OFFSET 6.378677 0.000000 0.000000
										CHANNELS 3 Xrotation Yrotation Zrotation
										JOINT mixamorig:LeftHandMiddle3
										{
											OFFSET 6.148331 0.000000 0.000000
											CHANNELS 3 Xrotation Yrotation Zrotation
											JOINT mixamorig:LeftHandMiddle4
											{
												OFFSET 6.582504 0.000000 0.000000
												CHANNELS 3 Xrotation Yrotation Zrotation
												End Site
												{
													OFFSET -1.168900 6.395691 1.028606
												}
											}
										}
									}
								}
								JOINT mixamorig:LeftHandThumb1
								{
									OFFSET 7.235672 -3.848206 5.434273
									CHANNELS 3 Xrotation Yrotation Zrotation
									JOINT mixamorig:LeftHandThumb2
									{
										OFFSET 6.568451 -3.792297 3.792300
										CHANNELS 3 Xrotation Yrotation Zrotation
										JOINT mixamorig:LeftHandThumb3
										{
											OFFSET 6.063080 -3.500519 3.500518
											CHANNELS 3 Xrotation Yrotation Zrotation
											JOINT mixamorig:LeftHandThumb4
											{
												OFFSET 4.793182 -2.767334 2.767349
												CHANNELS 3 Xrotation Yrotation Zrotation
												End Site
												{
													OFFSET 0.101639 6.054260 1.275483
												}
											}
										}
									}
								}
								JOINT mixamorig:LeftHandIndex1
								{
									OFFSET 23.101074 -0.309540 4.992809
									CHANNELS 3 Xrotation Yrotation Zrotation
									JOINT mixamorig:LeftHandIndex2
									{
										OFFSET 6.226883 0.000000 0.000000
										CHANNELS 3 Xrotation Yrotation Zrotation
										JOINT mixamorig:LeftHandIndex3
										{
											OFFSET 6.094330 0.000000 0.000000
											CHANNELS 3 Xrotation Yrotation Zrotation
											JOINT mixamorig:LeftHandIndex4
											{
												OFFSET 5.482605 0.000000 0.000000
												CHANNELS 3 Xrotation Yrotation Zrotation
												End Site
												{
													OFFSET -1.427902 5.233032 0.797164
												}
											}
										}
									}
								}
								JOINT mixamorig:LeftHandRing1
								{
									OFFSET 22.299240 0.021149 -3.964172
									CHANNELS 3 Xrotation Yrotation Zrotation
									JOINT mixamorig:LeftHandRing2
									{
										OFFSET 6.321869 0.000000 0.000000
										CHANNELS 3 Xrotation Yrotation Zrotation
										JOINT mixamorig:LeftHandRing3
										{
											OFFSET 5.899796 0.000000 0.000000
											CHANNELS 3 Xrotation Yrotation Zrotation
											JOINT mixamorig:LeftHandRing4
											{
												OFFSET 6.517899 0.000000 0.000000
												CHANNELS 3 Xrotation Yrotation Zrotation
												End Site
												{
													OFFSET -1.637299 6.232208 0.980890
												}
											}
										}
									}
								}
								JOINT mixamorig:LeftHandPinky1
								{
									OFFSET 20.463791 -0.302338 -8.562233
									CHANNELS 3 Xrotation Yrotation Zrotation
									JOINT mixamorig:LeftHandPinky2
									{
										OFFSET 6.908646 0.000000 0.000000
										CHANNELS 3 Xrotation Yrotation Zrotation
										JOINT mixamorig:LeftHandPinky3
										{
											OFFSET 4.622849 0.000000 0.000000
											CHANNELS 3 Xrotation Yrotation Zrotation
											JOINT mixamorig:LeftHandPinky4
											{
												OFFSET 5.216080 0.000000 0.000000
												CHANNELS 3 Xrotation Yrotation Zrotation
												End Site
												{
													OFFSET -0.606308 5.116241 0.814926
												}
											}
										}
									}
								}
							}
						}
					}
				}
				JOINT mixamorig:RightShoulder
				{
					OFFSET -12.001300 18.284088 1.348900
					CHANNELS 3 Xrotation Yrotation Zrotation
					JOINT mixamorig:RightArm
					{
						OFFSET -25.308500 -0.751312 -5.164599
						CHANNELS 3 Xrotation Yrotation Zrotation
						JOINT mixamorig:RightForeArm
						{
							OFFSET -54.684429 0.000000 0.000000
							CHANNELS 3 Xrotation Yrotation Zrotation
							JOINT mixamorig:RightHand
							{
								OFFSET -55.150291 0.000000 0.000000
								CHANNELS 3 Xrotation Yrotation Zrotation
								JOINT mixamorig:RightHandMiddle1
								{
									OFFSET -23.317566 0.000000 0.000000
									CHANNELS 3 Xrotation Yrotation Zrotation
									JOINT mixamorig:RightHandMiddle2
									{
										OFFSET -6.378403 0.000000 0.000000
										CHANNELS 3 Xrotation Yrotation Zrotation
										JOINT mixamorig:RightHandMiddle3
										{
											OFFSET -6.148193 0.000000 0.000000
											CHANNELS 3 Xrotation Yrotation Zrotation
											JOINT mixamorig:RightHandMiddle4
											{
												OFFSET -6.583389 0.000000 0.000000
												CHANNELS 3 Xrotation Yrotation Zrotation
												End Site
												{
													OFFSET 1.171692 6.395905 1.029786
												}
											}
										}
									}
								}
								JOINT mixamorig:RightHandThumb1
								{
									OFFSET -7.190521 -3.860474 5.435846
									CHANNELS 3 Xrotation Yrotation Zrotation
									JOINT mixamorig:RightHandThumb2
									{
										OFFSET -6.567429 -3.791718 3.791708
										CHANNELS 3 Xrotation Yrotation Zrotation
										JOINT mixamorig:RightHandThumb3
										{
											OFFSET -6.062469 -3.500153 3.500166
											CHANNELS 3 Xrotation Yrotation Zrotation
											JOINT mixamorig:RightHandThumb4
											{
												OFFSET -4.792618 -2.767029 2.767022
												CHANNELS 3 Xrotation Yrotation Zrotation
												End Site
												{
													OFFSET -0.100327 6.053253 1.276754
												}
											}
										}
									}
								}
								JOINT mixamorig:RightHandIndex1
								{
									OFFSET -23.048981 -0.310791 4.992554
									CHANNELS 3 Xrotation Yrotation Zrotation
									JOINT mixamorig:RightHandIndex2
									{
										OFFSET -6.227539 0.000000 0.000000
										CHANNELS 3 Xrotation Yrotation Zrotation
										JOINT mixamorig:RightHandIndex3
										{
											OFFSET -6.095047 0.000000 0.000000
											CHANNELS 3 Xrotation Yrotation Zrotation
											JOINT mixamorig:RightHandIndex4
											{
												OFFSET -5.484772 0.000000 0.000000
												CHANNELS 3 Xrotation Yrotation Zrotation
												End Site
												{
													OFFSET 1.420593 5.237305 0.797056
												}
											}
										}
									}
								}
								JOINT mixamorig:RightHandRing1
								{
									OFFSET -22.246323 0.020569 -3.963762
									CHANNELS 3 Xrotation Yrotation Zrotation
									JOINT mixamorig:RightHandRing2
									{
										OFFSET -6.322128 0.000000 0.000000
										CHANNELS 3 Xrotation Yrotation Zrotation
										JOINT mixamorig:RightHandRing3
										{
											OFFSET -5.900024 0.000000 0.000000
											CHANNELS 3 Xrotation Yrotation Zrotation
											JOINT mixamorig:RightHandRing4
											{
												OFFSET -6.518356 0.000000 0.000000
												CHANNELS 3 Xrotation Yrotation Zrotation
												End Site
												{
													OFFSET 1.636398 6.232697 0.982186
												}
											}
										}
									}
								}
								JOINT mixamorig:RightHandPinky1
								{
									OFFSET -20.411011 -0.303314 -8.561701
									CHANNELS 3 Xrotation Yrotation Zrotation
									JOINT mixamorig:RightHandPinky2
									{
										OFFSET -6.907349 0.000000 0.000000
										CHANNELS 3 Xrotation Yrotation Zrotation
										JOINT mixamorig:RightHandPinky3
										{
											OFFSET -4.623840 0.000000 0.000000
											CHANNELS 3 Xrotation Yrotation Zrotation
											JOINT mixamorig:RightHandPinky4
											{
												OFFSET -5.218353 0.000000 0.000000
												CHANNELS 3 Xrotation Yrotation Zrotation
												End Site
												{
													OFFSET 0.602097 5.118835 0.816273
												}
											}
										}
									}
								}
							}
						}
					}
				}
			}
		}
	}
	JOINT mixamorig:LeftUpLeg
	{
		OFFSET 18.168400 -13.561905 -0.039000
		CHANNELS 3 Xrotation Yrotation Zrotation
		JOINT mixamorig:LeftLeg
		{
			OFFSET 0.577358 -80.825211 -3.695000
			CHANNELS 3 Xrotation Yrotation Zrotation
			JOINT mixamorig:LeftFoot
			{
				OFFSET -0.577356 -83.370262 -6.520700
				CHANNELS 3 Xrotation Yrotation Zrotation
				JOINT mixamorig:LeftToeBase
				{
					OFFSET 0.750401 -20.798306 25.135401
					CHANNELS 3 Xrotation Yrotation Zrotation
					JOINT mixamorig:LeftToe_End
					{
						OFFSET -0.000500 0.001200 19.917799
						CHANNELS 3 Xrotation Yrotation Zrotation
						End Site
						{
							OFFSET 0.000000 19.917805 0.000000
						}
					}
				}
			}
		}
	}
	JOINT mixamorig:RightUpLeg
	{
		OFFSET -18.162500 -13.585098 -0.041000
		CHANNELS 3 Xrotation Yrotation Zrotation
		JOINT mixamorig:RightLeg
		{
			OFFSET -0.595024 -80.945297 -3.631900
			CHANNELS 3 Xrotation Yrotation Zrotation
			JOINT mixamorig:RightFoot
			{
				OFFSET 0.595024 -83.218193 -6.561200
				CHANNELS 3 Xrotation Yrotation Zrotation
				JOINT mixamorig:RightToeBase
				{
					OFFSET -0.753601 -20.807106 25.115000
					CHANNELS 3 Xrotation Yrotation Zrotation
					JOINT mixamorig:RightToe_End
					{
						OFFSET 0.000299 0.001700 19.918200
						CHANNELS 3 Xrotation Yrotation Zrotation
						End Site
						{
							OFFSET 0.000000 19.918203 0.000000
						}
					}
				}
			}
		}
	}
}
MOTION
Frames: 4
Frame Time: 0.033333
-296.101288 85.606583 -44.788483 -15.003467 -47.421676 4.363176 12.644214 -3.216053 0.355003 25.424252 -7.057153 1.940106 25.424266 -7.057159 1.940107 12.043445 1.076357 -14.424957 -12.302900 -1.605765 -0.363028 0.000001 -0.000001 0.000002 0.000001 -0.000001 0.000002 0.000001 -0.000001 0.000002 -0.076330 -37.770301 -3.784779 -23.200906 -33.305386 -29.460918 -0.048032 -29.804606 0.051234 53.278150 9.969665 -13.177435 -0.256123 1.225597 -4.723300 -1.780530 -3.459849 -57.604900 0.000005 0.000001 -0.000009 -0.000000 -0.000001 0.000001 8.936456 6.615384 -2.283989 -3.589898 7.889651 1.805961 -0.000002 -0.000005 -0.000004 0.000002 -0.000004 -0.000000 9.724203 -0.357862 1.226634 0.676182 1.157801 -51.097625 0.000003 -0.000003 -0.000008 -0.000001 -0.000000 0.000001 1.261101 7.353017 -27.467732 -1.648104 -3.990950 -44.200026 0.000003 -0.000006 -0.000014 -0.000001 0.000000 -0.000002 -9.689992 13.881945 -27.651389 -3.355503 -7.479361 -47.446022 0.000004 0.000001 0.000014 -0.000001 0.000000 0.000004 -0.811703 14.601817 0.659566 -54.946768 -0.491325 53.292630 1.059701 118.214769 -1.599722 34.635384 24.157978 -46.195062 0.780335 -2.308365 66.125684 -4.572552 2.150024 107.375109 -0.000013 0.000007 0.000001 0.000002 0.000000 -0.000000 21.433352 11.566043 8.372829 6.388718 -14.926414 -2.189310 0.000006 -0.000024 -0.000013 0.000003 -0.000000 0.000000 -4.321958 -2.130137 25.163605 0.909405 -0.941246 31.153258 -0.000003 -0.000001 -0.000003 0.000001 -0.000001 -0.000001 -2.607521 -2.768270 68.411926 -7.015860 6.591438 97.951606 -0.000008 0.000005 0.000003 -0.000001 0.000001 0.000003 -9.878955 -3.613143 73.969678 -9.210429 12.597577 85.804975 -0.000003 -0.000001 0.000003 -0.000002 -0.000002 -0.000000 -97.451199 -1.987788 34.570733 115.231261 -1.947125 -3.161687 -1.410441 -21.383483 -1.175917 0.139041 4.968132 -1.590660 0.000000 0.000001 0.000000 -52.540113 21.237170 -24.292731 150.516510 -5.728133 2.242831 13.704989 23.934433 4.092109 -85.262706 3.441802 -3.092108 0.000001 -0.000000 0.000000 
-296.434021 85.832718 -44.681999 -14.391772 -47.582940 4.895532 12.612142 -3.211949 0.385684 25.363368 -7.033461 2.020823 25.363378 -7.033479 2.020836 11.721211 1.228777 -15.733476 -12.136699 -1.871444 0.018535 -0.000002 -0.000001 -0.000000 -0.000002 -0.000001 -0.000000 -0.000002 -0.000001 -0.000000 -0.323880 -37.758099 -4.576439 -22.060466 -31.929649 -28.039550 -0.047270 -31.035563 0.056469 50.366795 3.250777 -12.993316 -0.408815 0.681567 -6.949725 -1.995878 -3.619976 -61.058244 0.000005 -0.000001 -0.000006 -0.000000 -0.000000 0.000003 13.155206 11.672325 -2.442556 -3.630149 7.981875 1.779903 -0.000002 -0.000006 0.000001 0.000000 0.000001 0.000000 9.714746 1.894769 -1.546415 0.820356 1.189603 -57.967365 0.000003 -0.000006 -0.000011 0.000000 0.000001 -0.000003 1.546212 7.527739 -29.393975 -1.832763 -4.141414 -46.836427 0.000004 -0.000007 -0.000012 -0.000000 -0.000000 0.000001 -9.426996 13.905118 -29.625768 -3.522443 -7.534537 -48.759874 0.000003 0.000002 0.000015 0.000002 0.000001 0.000001 -0.824602 14.573778 0.751516 -54.724237 -0.204802 52.711473 1.072540 118.213226 -1.608859 34.520562 23.825788 -46.738725 0.750458 -2.269624 66.181446 -4.572664 2.149980 107.377971 -0.000011 0.000006 -0.000001 0.000000 0.000001 -0.000001 21.277291 11.848726 8.366462 6.388726 -14.926417 -2.189308 0.000009 -0.000023 -0.000012 0.000003 -0.000001 0.000001 -4.331422 -2.099579 25.226233 0.908524 -0.940101 31.100266 -0.000005 -0.000002 -0.000007 -0.000000 -0.000000 -0.000005 -2.601740 -2.769671 68.470420 -7.015379 6.591494 97.947440 -0.000006 0.000001 0.000008 -0.000000 0.000001 0.000003 -9.876880 -3.612277 73.949700 -9.191851 12.598464 85.718007 0.000002 0.000002 0.000001 -0.000001 0.000001 -0.000000 -97.487201 -2.100620 34.464926 115.203339 -1.916095 -3.158989 -1.772080 -21.266540 -1.646432 0.112724 4.990337 -1.633376 -0.000000 -0.000002 -0.000000 -52.818901 21.305650 -24.192110 150.372311 -5.644862 2.252622 13.772907 23.940764 3.960915 -85.328590 3.487134 -3.033765 0.000000 0.000000 -0.000000 
-296.655853 86.059952 -44.601906 -13.828813 -47.707642 5.450153 12.615425 -3.127377 0.468133 25.371206 -6.837753 2.187292 25.371211 -6.837752 2.187291 11.287858 1.328571 -16.992095 -11.990045 -2.215845 0.357661 0.000003 0.000002 -0.000003 0.000003 0.000002 -0.000003 0.000003 0.000002 -0.000003 -0.499981 -37.607507 -5.155612 -20.941088 -30.011236 -26.753294 -0.035141 -33.870621 0.073102 34.366619 -1.371206 -13.470110 -0.514390 0.257214 -8.231992 -2.127126 -3.709533 -63.092985 0.000008 -0.000002 -0.000002 -0.000000 -0.000000 0.000002 14.476004 16.256904 -1.530229 -3.480269 7.580770 1.830575 -0.000001 -0.000006 -0.000002 0.000002 -0.000002 -0.000001 9.732636 2.172624 -2.363264 0.850224 1.194316 -59.373953 0.000004 -0.000005 -0.000010 -0.000000 0.000000 -0.000004 1.644920 7.705685 -29.199380 -1.925477 -4.208176 -48.118495 0.000005 -0.000010 -0.000010 -0.000001 -0.000001 -0.000002 -9.272120 14.014262 -30.255272 -3.094273 -7.336977 -45.493540 0.000004 0.000005 0.000010 0.000000 0.000001 0.000002 -0.863854 14.716601 0.933784 -54.376560 0.222152 51.831406 1.090023 118.216668 -1.619610 34.342355 23.323561 -47.561544 0.725350 -2.237343 66.229380 -4.572758 2.149936 107.380532 -0.000010 0.000008 0.000000 0.000002 0.000000 0.000002 21.195409 12.057202 8.383275 6.388720 -14.926419 -2.189310 0.000009 -0.000025 -0.000011 0.000002 0.000001 -0.000001 -4.338078 -2.075933 25.265855 0.907689 -0.939018 31.050347 -0.000004 -0.000002 -0.000010 0.000002 0.000001 -0.000002 -2.595422 -2.771588 68.518252 -7.014989 6.591536 97.944168 -0.000004 0.000004 0.000002 0.000000 0.000000 0.000002 -9.875074 -3.611311 73.929462 -9.175935 12.599200 85.643496 -0.000004 0.000000 -0.000005 -0.000003 -0.000002 -0.000000 -97.529958 -2.072606 34.362402 115.130953 -1.883216 -3.156104 -2.063319 -21.141715 -2.017123 0.106204 4.982619 -1.643586 0.000000 -0.000002 0.000000 -53.005929 21.428441 -24.178706 150.221869 -5.578240 2.261040 13.651123 24.009401 3.945635 -85.417676 3.498159 -3.028954 0.000000 0.000002 0.000000 
-296.759094 86.276871 -44.582146 -13.423793 -47.700716 5.964797 12.642774 -2.994375 0.584105 25.425562 -6.537625 2.407948 25.425582 -6.537629 2.407971 10.861895 1.135220 -17.629369 -11.969637 -2.723246 0.687266 0.000001 -0.000000 -0.000002 0.000001 -0.000000 -0.000002 0.000001 -0.000000 -0.000002 -0.564359 -37.222793 -5.401575 -19.769709 -28.024527 -26.142964 -0.012429 -39.072674 0.099089 22.071953 -0.744575 -13.563333 -0.272553 0.378006 -4.091708 -2.066989 -3.673724 -62.168860 0.000006 -0.000001 -0.000004 0.000001 -0.000002 0.000004 11.842745 16.790065 0.068004 -2.411300 5.129270 1.817304 -0.000001 -0.000000 -0.000004 0.000001 0.000001 -0.000001 9.713981 1.473253 3.960920 0.705703 1.166944 -52.538693 0.000004 -0.000005 -0.000012 0.000000 0.000001 -0.000001 1.485366 8.654982 -23.985929 -1.641081 -3.967075 -44.056851 0.000003 -0.000005 -0.000014 -0.000001 -0.000002 0.000001 -9.081647 15.085625 -27.571968 -2.214396 -6.852624 -38.412899 0.000005 0.000001 0.000018 0.000001 0.000003 -0.000003 -0.934823 15.047269 1.222953 -53.977158 0.694904 50.841920 1.107298 118.224905 -1.628906 34.133986 22.759410 -48.482165 0.704781 -2.211176 66.269726 -4.572853 2.149917 107.382848 -0.000013 0.000007 -0.000002 0.000001 -0.000001 0.000001 21.173414 12.210603 8.418247 6.388719 -14.926417 -2.189310 0.000006 -0.000028 -0.000010 -0.000004 -0.000000 0.000000 -4.342083 -2.058850 25.284725 0.906868 -0.937977 31.003485 -0.000004 -0.000000 -0.000010 0.000003 -0.000001 -0.000001 -2.588698 -2.773971 68.555510 -7.014709 6.591550 97.941771 -0.000005 -0.000003 0.000001 -0.000001 0.000001 0.000005 -9.873510 -3.610258 73.909019 -9.162519 12.599825 85.580740 -0.000001 0.000004 -0.000000 -0.000002 0.000001 0.000001 -97.549691 -1.840043 34.246278 114.986863 -1.854857 -3.153378 -2.218729 -21.063173 -2.212178 0.116548 4.950840 -1.626352 0.000000 -0.000003 0.000000 -53.009330 21.574775 -24.351501 150.075935 -5.538860 2.267078 13.431038 24.192487 3.972353 -85.527902 3.483294 -3.060182 -0.000001 -0.000001 0.000000 
